<svg preserveAspectRatio="none" width="100%" height="100%" overflow="visible" style="display: block;" viewBox="0 0 24 24" fill="none" xmlns="http://www.w3.org/2000/svg">
<g id="icon" opacity="0.5">
<path id="Vector" d="M18 20C18.5523 20 19 19.5523 19 19V5C19 4.44772 18.5523 4 18 4H9.37073C9.09432 4 8.83024 4.11441 8.64119 4.31606L5.27046 7.91151C5.0967 8.09685 5 8.34139 5 8.59545V19C5 19.5523 5.44772 20 6 20H18Z" fill="var(--fill-0, #1C00C9)" stroke="var(--stroke-0, #1C00C9)" stroke-width="1.5" stroke-linecap="round" stroke-linejoin="round"/>
<path id="Star 1" d="M11.75 8.37677C11.8687 8.19791 12.1313 8.19791 12.25 8.37677L13.6722 10.5203C13.712 10.5803 13.7722 10.624 13.8417 10.6434L16.3197 11.3336C16.5265 11.3912 16.6076 11.641 16.4742 11.8091L14.8751 13.824C14.8303 13.8805 14.8073 13.9512 14.8104 14.0233L14.9197 16.5933C14.9288 16.8078 14.7164 16.9622 14.5152 16.8872L12.1047 15.989C12.0372 15.9639 11.9628 15.9639 11.8953 15.989L9.48477 16.8872C9.28364 16.9622 9.07117 16.8078 9.08029 16.5933L9.18963 14.0233C9.1927 13.9512 9.16971 13.8805 9.12489 13.824L7.5258 11.8091C7.39237 11.641 7.47352 11.3912 7.68029 11.3336L10.1583 10.6434C10.2278 10.624 10.288 10.5803 10.3278 10.5203L11.75 8.37677Z" fill="var(--fill-0, white)"/>
</g>
</svg>
