<svg preserveAspectRatio="none" width="100%" height="100%" overflow="visible" style="display: block;" viewBox="0 0 24 24" fill="none" xmlns="http://www.w3.org/2000/svg">
<g id="icon">
<path id="Vector" d="M20 22V2H8.50001L4.00001 7.25V22H20Z" fill="var(--fill-0, #F55A3B)" stroke="var(--stroke-0, #F55A3B)" stroke-width="2" stroke-linecap="round" stroke-linejoin="round"/>
<g id="Vector_2">
<path d="M10 13.4706H7C6.44772 13.4706 6 13.9183 6 14.4706V17C6 17.5523 6.44772 18 7 18H10V13.4706Z" fill="var(--fill-0, #292929)"/>
<path d="M14 10.2353H11C10.4477 10.2353 10 10.683 10 11.2353V18L14 18V10.2353Z" fill="var(--fill-0, #292929)"/>
<path d="M18 8C18 7.44772 17.5523 7 17 7H15C14.4477 7 14 7.44771 14 8V18L17 18C17.5523 18 18 17.5523 18 17V8Z" fill="var(--fill-0, #292929)"/>
</g>
</g>
</svg>
