<svg preserveAspectRatio="none" width="100%" height="100%" overflow="visible" style="display: block;" viewBox="0 0 24 24" fill="none" xmlns="http://www.w3.org/2000/svg">
<g id="icon" opacity="0.5">
<path id="Vector" d="M18 20C18.5523 20 19 19.5523 19 19V5C19 4.44772 18.5523 4 18 4H9.37073C9.09432 4 8.83024 4.11441 8.64119 4.31606L5.27046 7.91151C5.0967 8.09685 5 8.34139 5 8.59545V19C5 19.5523 5.44772 20 6 20H18Z" fill="#1C00C9" stroke="#1C00C9" stroke-width="1.5" stroke-linecap="round" stroke-linejoin="round"/>
<path id="Vector_2" d="M8.75 12C8.33579 12 8 12.3358 8 12.75C8 13.1642 8.33579 13.5 8.75 13.5L15.25 13.5C15.6642 13.5 16 13.1642 16 12.75C16 12.3358 15.6642 12 15.25 12L8.75 12Z" fill="#ECECEA"/>
<path id="Vector_3" d="M8.75 15.5C8.33579 15.5 8 15.8358 8 16.25C8 16.6642 8.33579 17 8.75 17L15.25 17C15.6642 17 16 16.6642 16 16.25C16 15.8358 15.6642 15.5 15.25 15.5L8.75 15.5Z" fill="#ECECEA"/>
</g>
</svg>
